<?xml version="1.0" standalone="no"?>
<!DOCTYPE svg PUBLIC "-//W3C//DTD SVG 20010904//EN"
 "http://www.w3.org/TR/2001/REC-SVG-20010904/DTD/svg10.dtd">
<svg version="1.0" xmlns="http://www.w3.org/2000/svg"
 width="128.000000pt" height="128.000000pt" viewBox="0 0 128.000000 128.000000"
 preserveAspectRatio="xMidYMid meet">
<metadata>
Created by potrace 1.10, written by Peter Selinger 2001-2011
</metadata>
<g transform="translate(0.000000,128.000000) scale(0.100000,-0.100000)"
fill="#000000" stroke="none">
<path d="M207 1211 l-179 -6 -5 -533 -6 -533 266 3 266 3 -6 -29 c-7 -33 1
-40 72 -61 179 -55 623 -28 648 39 7 19 -36 142 -58 165 -9 11 -30 25 -46 32
l-30 12 26 27 27 28 -2 423 c0 233 -2 424 -3 425 -6 7 -814 10 -970 5z m953
-166 c0 -97 -4 -155 -10 -155 -6 0 -10 54 -10 143 l0 142 -540 0 -540 0 0
-147 0 -148 550 0 550 0 0 -262 c0 -229 -2 -264 -17 -280 -17 -19 -58 -24 -68
-8 -3 6 3 10 14 10 11 0 23 5 26 10 7 12 -11 12 -40 1 -11 -5 -30 -4 -43 0
-17 7 -30 4 -50 -10 -15 -10 -52 -22 -83 -25 -50 -5 -58 -3 -78 18 l-23 24
-41 -19 c-37 -16 -68 -19 -240 -19 -144 0 -198 -3 -195 -11 3 -8 54 -11 173
-10 l170 2 -31 -20 c-34 -21 -67 -63 -78 -98 l-7 -23 -255 0 -254 0 0 514 c0
282 3 516 7 520 3 3 255 6 560 6 l553 0 0 -155z m-77 108 l37 -5 0 -114 c0
-83 -3 -116 -12 -119 -10 -3 -90 -9 -213 -16 -86 -5 -793 15 -801 22 -9 7 -12
45 -11 117 l2 107 95 5 c122 7 853 9 903 3z m72 -899 c31 -24 44 -44 58 -89
10 -32 14 -61 10 -65 -19 -18 -93 -33 -192 -39 -141 -10 -325 -5 -350 8 -11 6
-35 11 -53 11 -63 0 -73 32 -34 108 48 95 97 117 247 107 94 -6 110 -5 145 13
l38 20 46 -21 c25 -12 63 -36 85 -53z"/>
<path d="M830 849 c-14 -5 -35 -19 -47 -31 -21 -19 -32 -20 -242 -19 -199 2
-221 0 -221 -14 0 -15 22 -16 219 -13 203 3 218 2 210 -14 -5 -9 -9 -39 -9
-67 l0 -51 -210 0 c-180 0 -210 -2 -210 -15 0 -13 29 -15 205 -15 203 0 206 0
216 -22 5 -13 21 -41 34 -63 19 -31 25 -35 25 -19 0 12 -10 36 -23 55 -28 42
-39 69 -28 69 5 0 12 22 16 49 4 28 15 57 25 66 16 15 21 15 55 1 21 -9 63
-16 94 -16 31 0 62 -4 68 -8 7 -4 19 -30 27 -57 14 -46 14 -50 -10 -90 -13
-23 -24 -52 -24 -64 0 -24 -25 -69 -49 -88 -27 -23 -89 -16 -116 13 -14 15
-25 31 -25 35 0 5 -111 9 -246 9 -175 0 -245 -3 -242 -11 3 -8 74 -11 237 -10
l234 2 27 -33 c25 -30 33 -33 80 -33 47 0 55 3 80 34 27 32 31 33 84 29 42 -4
56 -1 56 9 0 9 -16 13 -55 13 -32 0 -55 4 -55 11 0 5 12 35 27 65 23 46 30 54
55 54 19 0 28 5 28 16 0 12 -7 15 -28 12 -28 -4 -29 -3 -31 46 -1 27 -6 57
-12 67 -14 28 -12 30 31 23 34 -6 40 -4 40 10 0 14 -8 17 -45 15 -38 -3 -49 1
-75 26 -25 24 -40 29 -87 32 -32 1 -69 -2 -83 -8z m124 -23 c31 -13 76 -59 76
-78 0 -5 -8 -4 -18 1 -10 5 -38 7 -63 5 -49 -6 -152 23 -146 41 2 5 11 9 20 7
9 -1 25 6 37 18 24 24 48 25 94 6z"/>
<path d="M80 780 c0 -17 7 -20 40 -20 33 0 40 3 40 20 0 17 -7 20 -40 20 -33
0 -40 -3 -40 -20z"/>
<path d="M80 620 c0 -17 7 -20 40 -20 33 0 40 3 40 20 0 17 -7 20 -40 20 -33
0 -40 -3 -40 -20z"/>
<path d="M80 460 c0 -17 7 -20 40 -20 33 0 40 3 40 20 0 17 -7 20 -40 20 -33
0 -40 -3 -40 -20z"/>
<path d="M80 300 c0 -17 7 -20 40 -20 33 0 40 3 40 20 0 17 -7 20 -40 20 -33
0 -40 -3 -40 -20z"/>
<path d="M924 1103 c-3 -10 -10 -26 -15 -35 -13 -26 -11 -32 6 -18 8 7 15 23
15 37 0 18 5 24 18 21 11 -3 16 -12 15 -26 -2 -13 4 -25 12 -28 29 -12 14 -24
-28 -24 -32 0 -44 -4 -44 -15 0 -8 4 -12 9 -9 5 3 17 -5 28 -18 11 -13 19 -17
20 -10 0 6 -5 12 -11 12 -5 0 -7 5 -4 10 9 15 25 12 25 -5 0 -8 5 -15 11 -15
8 0 7 -6 -2 -17 -13 -16 -12 -17 4 -4 13 10 14 17 7 26 -8 9 -8 15 0 20 13 8
13 65 0 65 -5 0 -7 6 -4 14 3 8 -3 19 -15 25 -28 15 -41 14 -47 -6z"/>
<path d="M1057 1083 c-4 -3 -2 -12 4 -19 7 -8 7 -14 -1 -19 -8 -5 -7 -11 2
-22 11 -14 10 -15 -8 -9 -14 4 -26 1 -35 -11 -13 -16 -12 -17 4 -4 9 8 21 11
24 7 4 -4 3 -10 -2 -14 -6 -4 -17 -16 -25 -27 -15 -19 -14 -19 10 -2 32 22 46
22 29 0 -13 -16 -12 -17 4 -4 13 10 14 17 7 27 -8 9 -6 15 7 23 17 9 17 10 0
16 -13 6 -15 11 -7 20 8 9 8 15 0 20 -6 3 -8 11 -5 16 7 10 1 12 -8 2z"/>
<path d="M710 93 c0 -13 5 -23 10 -23 13 0 13 11 0 30 -8 12 -10 11 -10 -7z"/>
</g>
</svg>